Coordinates
version=1
nRows=14
nColumns=24
inDegrees=yes

Units are S.I. units (second, meters, Newtons, ...)
Angles are in degrees.

endheader
time	pelvis_tilt	pelvis_list	pelvis_rotation	pelvis_tx	pelvis_ty	pelvis_tz	hip_flexion_r	hip_adduction_r	hip_rotation_r	knee_angle_r	ankle_angle_r	subtalar_angle_r	mtp_angle_r	hip_flexion_l	hip_adduction_l	hip_rotation_l	knee_angle_l	ankle_angle_l	subtalar_angle_l	mtp_angle_l	lumbar_extension	lumbar_bending	lumbar_rotation
      1.14450000	     -4.05696316	      2.22592178	     -4.00827805	      0.22286921	      1.05734643	      0.27539881	     21.09884432	     -7.20739270	     -6.43820246	    -74.11052794	     -0.23908416	     -6.59917547	     10.17543755	     16.34646725	      1.43572353	      2.84177985	    -21.37149063	     10.69814552	      2.19820024	      5.79816324	     -6.68372616	     -4.89644959	      2.28830457
      1.14866667	     -4.02758767	      2.10923749	     -4.05478601	      0.22841870	      1.05889407	      0.27549406	     21.61274647	     -7.00120709	     -6.53702012	    -73.89953040	      0.06047347	     -6.21652614	     10.16701116	     15.66420887	      1.31678320	      2.86915702	    -20.73371131	     10.65979623	      2.13586187	      5.81397589	     -6.72415370	     -4.77996316	      2.21196334
      1.15283333	     -4.00190234	      1.97849593	     -4.09360337	      0.23396234	      1.06041773	      0.27559900	     22.10901460	     -6.77298443	     -6.64499119	    -73.61059528	      0.33000528	     -5.89108391	     10.16264157	     14.98376624	      1.18246710	      2.90187021	    -20.08621126	     10.55910652	      2.04894066	      5.83947021	     -6.76117758	     -4.64951589	      2.11801951
      1.15700000	     -3.99444262	      1.82492249	     -4.12508478	      0.23948219	      1.06185786	      0.27569056	     22.60848686	     -6.51536527	     -6.76212902	    -73.25596005	      0.57536542	     -5.56566077	     10.17257446	     14.34138907	      1.01856093	      2.90098062	    -19.47613685	     10.49093587	      2.04482116	      5.85145883	     -6.79357622	     -4.47852173	      2.05989426
      1.16116667	     -3.95833562	      1.71416695	     -4.13441421	      0.24501898	      1.06327490	      0.27573106	     23.06307102	     -6.32820099	     -6.90645003	    -72.85616236	      0.86620024	     -5.18608455	     10.19287423	     13.65317979	      0.91707557	      2.96682948	    -18.82328984	     10.42552858	      1.95141834	      5.87154340	     -6.84361434	     -4.35379635	      1.94106907
      1.16533333	     -3.94028315	      1.57632876	     -4.13142309	      0.25054564	      1.06463031	      0.27575983	     23.51323041	     -6.10613026	     -7.06326596	    -72.38147899	      1.12478328	     -4.85766699	     10.21969163	     12.99327361	      0.78498626	      3.03736988	    -18.18606327	     10.32870290	      1.86367875	      5.89240077	     -6.88096028	     -4.19323395	      1.82690841
      1.16950000	     -3.91584969	      1.44985518	     -4.11498780	      0.25606670	      1.06594246	      0.27576103	     23.94155715	     -5.90630665	     -7.23468194	    -71.85259239	      1.38324571	     -4.54329445	     10.25388200	     12.32874457	      0.66892034	      3.12504863	    -17.54540424	     10.22474375	      1.76055707	      5.91545033	     -6.93027261	     -4.04653843	      1.69885069
      1.17366667	     -3.90108703	      1.30647845	     -4.08187700	      0.26157907	      1.06717629	      0.27573397	     24.35825916	     -5.69119492	     -7.42476842	    -71.26065873	      1.62751504	     -4.25559422	     10.29154962	     11.68612413	      0.53518207	      3.21973967	    -16.92561434	     10.13214756	      1.67099965	      5.93859351	     -6.96614306	     -3.87418915	      1.56868555
      1.17783333	     -3.87039393	      1.17354565	     -4.03837157	      0.26708460	      1.06838461	      0.27568651	     24.74119299	     -5.49513367	     -7.62365896	    -70.61336188	      1.87238427	     -3.98383439	     10.33361497	     11.02732736	      0.41608058	      3.32822725	    -16.29993791	     10.02754103	      1.56518104	      5.96213937	     -7.02729941	     -3.70930450	      1.42442923
      1.18200000	     -3.84637916	      1.04368341	     -3.98058500	      0.27257917	      1.06950605	      0.27561519	     25.11644382	     -5.30864293	     -7.83428492	    -69.91762209	      2.11362727	     -3.73564769	     10.38046136	     10.38419098	      0.30178985	      3.45617365	    -15.68517083	      9.91942853	      1.44394756	      5.98798203	     -7.08176274	     -3.54186775	      1.26398482
      1.18616667	     -3.84156800	      0.92004160	     -3.91316240	      0.27805786	      1.07052272	      0.27553238	     25.49954238	     -5.12942087	     -8.04616389	    -69.17389916	      2.34846117	     -3.53271774	     10.43837683	      9.76926295	      0.19333646	      3.60743930	    -15.07940239	      9.79016733	      1.30704389	      6.02156076	     -7.12520821	     -3.38702934	      1.08662357
      1.19033333	     -3.82262104	      0.79507328	     -3.83464301	      0.28353570	      1.07149508	      0.27543057	     25.84747097	     -4.95715571	     -8.27117988	    -68.37606963	      2.57441140	     -3.34629504	     10.49385911	      9.14961805	      0.08326808	      3.74939235	    -14.49303090	      9.69394537	      1.18670926	      6.05371384	     -7.17455133	     -3.22401734	      0.92377545
      1.19450000	     -3.82442193	      0.66241777	     -3.74216189	      0.28901369	      1.07235170	      0.27528697	     26.20001156	     -4.78455079	     -8.51133082	    -67.52701344	      2.78267763	     -3.18331387	     10.54096133	      8.56791837	     -0.03552161	      3.89149546	    -13.93868612	      9.63871295	      1.08263665	      6.08105274	     -7.19559563	     -3.04533649	      0.75881088
      1.19866667	     -3.82808910	      0.53598035	     -3.64336997	      0.29447201	      1.07314054	      0.27514848	     26.54049658	     -4.61924192	     -8.75054007	    -66.63113480	      2.98650787	     -3.05234638	     10.58307491	      7.99757862	     -0.14966714	      4.03896221	    -13.39589137	      9.56895422	      0.97125790	      6.10481849	     -7.22084849	     -2.87361761	      0.58936537
